<?xml version="1.0" encoding="UTF-8"?>
<svg version="1.1" xmlns="http://www.w3.org/2000/svg" width="433" height="280">
<path d="M0 0 C18.50767374 15.43260542 30.89971206 37.1394502 34.10546875 61.08154297 C35.94174654 82.18740251 33.82612084 106.72192935 20.5234375 124.15185547 C19.23012809 125.67176325 19.23012809 125.67176325 19.421875 127.71826172 C18.431875 128.37826172 17.441875 129.03826172 16.421875 129.71826172 C16.091875 130.70826172 15.761875 131.69826172 15.421875 132.71826172 C14.32322236 133.88558015 13.21206009 135.04291465 12.05078125 136.14794922 C10.84304245 137.31224418 9.66800871 138.51066923 8.51171875 139.72607422 C1.83576631 146.68069618 -5.75885179 153.60515166 -14.578125 157.71826172 C-15.403125 158.21326172 -16.228125 158.70826172 -17.078125 159.21826172 C-21.67430934 161.97597233 -25.44880401 163.42600197 -30.765625 164.15576172 C-31.69375 164.34138672 -32.621875 164.52701172 -33.578125 164.71826172 C-33.908125 165.37826172 -34.238125 166.03826172 -34.578125 166.71826172 C-35.238125 166.38826172 -35.898125 166.05826172 -36.578125 165.71826172 C-36.908125 166.37826172 -37.238125 167.03826172 -37.578125 167.71826172 C-39.51171875 168.13232422 -39.51171875 168.13232422 -42.015625 168.34326172 C-43.22025391 168.45541016 -43.22025391 168.45541016 -44.44921875 168.56982422 C-48.82088382 168.77721907 -53.20154322 168.71826172 -57.578125 168.71826172 C-57.248125 135.71826172 -56.918125 102.71826172 -56.578125 68.71826172 C-43.708125 68.71826172 -30.838125 68.71826172 -17.578125 68.71826172 C-17.578125 58.15826172 -17.578125 47.59826172 -17.578125 36.71826172 C-14.278125 36.71826172 -10.978125 36.71826172 -7.578125 36.71826172 C-7.578125 61.13826172 -7.578125 85.55826172 -7.578125 110.71826172 C-10.878125 110.71826172 -14.178125 110.71826172 -17.578125 110.71826172 C-17.578125 100.15826172 -17.578125 89.59826172 -17.578125 78.71826172 C-27.148125 78.71826172 -36.718125 78.71826172 -46.578125 78.71826172 C-46.51521877 88.16740295 -46.43981951 97.61621751 -46.34241009 107.06506729 C-46.29767888 111.45253921 -46.25842893 115.83991768 -46.23168945 120.22753906 C-46.20568375 124.46170851 -46.16530104 128.69551889 -46.11493874 132.92946625 C-46.09825146 134.54494511 -46.08674876 136.16048611 -46.08051109 137.77603912 C-46.07088996 140.03873859 -46.04285631 142.3005156 -46.01049805 144.56298828 C-45.99939499 145.85094299 -45.98829193 147.13889771 -45.97685242 148.46588135 C-45.55935265 151.87138595 -44.90656493 153.2636466 -42.578125 155.71826172 C-41.588125 155.38826172 -40.598125 155.05826172 -39.578125 154.71826172 C-38.36125 154.53263672 -37.144375 154.34701172 -35.890625 154.15576172 C-19.47957918 150.53567808 -5.44259061 139.00346514 5.421875 126.71826172 C6.6396609 124.63911345 6.6396609 124.63911345 7.421875 122.71826172 C8.421875 120.71826172 8.421875 120.71826172 10.296875 118.46044922 C18.54871378 107.81193668 22.82689586 92.06648935 23.421875 78.71826172 C23.46183594 78.05310547 23.50179687 77.38794922 23.54296875 76.70263672 C24.24184312 54.50309785 16.12592542 33.21885966 1.421875 16.71826172 C0.75671875 15.95900391 0.0915625 15.19974609 -0.59375 14.41748047 C-14.75458083 -0.76607703 -35.36573912 -9.48045486 -55.9609375 -10.56298828 C-80.02706473 -11.31002909 -101.47444994 -4.07379478 -119.28735352 12.44165039 C-124.73304289 17.66308967 -129.39542944 23.44421838 -133.578125 29.71826172 C-136.3984375 30.01123047 -136.3984375 30.01123047 -139.703125 29.90576172 C-141.34667969 29.86515625 -141.34667969 29.86515625 -143.0234375 29.82373047 C-144.28800781 29.77152344 -144.28800781 29.77152344 -145.578125 29.71826172 C-137.30047896 10.00958068 -118.79589568 -5.74077984 -99.48828125 -14.13720703 C-95.57992496 -15.72510961 -91.61023671 -17.04735361 -87.578125 -18.28173828 C-86.52109375 -18.62076172 -85.4640625 -18.95978516 -84.375 -19.30908203 C-54.72834636 -27.23189464 -23.4019024 -19.00680501 0 0 Z " fill="#2C2F2F" transform="translate(277.578125,56.28173828125)"/>
<path d="M0 0 C7.94559651 -0.06974168 15.89106351 -0.12293312 23.83689117 -0.15543652 C27.52711355 -0.17104246 31.21712535 -0.19218682 34.90722656 -0.22631836 C38.47340442 -0.25909442 42.03938068 -0.27689109 45.60569763 -0.28463173 C47.61744847 -0.29281099 49.62911907 -0.31620093 51.64074707 -0.33988953 C60.17104429 -0.34144746 66.05482344 0.3445927 73.25 5.1875 C77.87071639 9.91323268 80.19269262 14.33142985 80.5 21 C80.21734882 26.94479256 78.43073112 31.40798815 74.3515625 35.7578125 C67.78745 41.69131157 62.29980556 42.28202953 53.6875 42.125 C50.490625 42.08375 47.29375 42.0425 44 42 C44 52.56 44 63.12 44 74 C40.7 74 37.4 74 34 74 C34 60.14 34 46.28 34 32 C48.1875 31.75 48.1875 31.75 52.63745117 31.70214844 C53.80252197 31.6715332 54.96759277 31.64091797 56.16796875 31.609375 C57.35672607 31.58842773 58.5454834 31.56748047 59.77026367 31.54589844 C63.58902274 30.90044184 65.27957801 29.71038353 68 27 C68.80342377 24.66869206 68.80342377 24.66869206 68.8125 22.25 C68.86019531 21.45078125 68.90789062 20.6515625 68.95703125 19.828125 C68.97121094 19.22484375 68.98539062 18.6215625 69 18 C68.34 17.67 67.68 17.34 67 17 C66.896875 16.360625 66.79375 15.72125 66.6875 15.0625 C66.19327563 12.77428295 66.19327563 12.77428295 63.80232239 11.88528442 C60.85011875 10.95265087 58.56342333 10.75848514 55.4753418 10.77294922 C54.39459885 10.77310028 53.3138559 10.77325134 52.20036316 10.77340698 C51.0449855 10.78372955 49.88960785 10.79405212 48.69921875 10.8046875 C46.91195122 10.80893234 46.91195122 10.80893234 45.08857727 10.81326294 C41.28811544 10.82444567 37.48789044 10.8495472 33.6875 10.875 C31.10872737 10.88503225 28.52995103 10.89415767 25.95117188 10.90234375 C19.63403397 10.9243788 13.31703391 10.95783768 7 11 C6.50267623 13.03190188 6.01327474 15.06574358 5.52709961 17.1003418 C5.11698891 18.79890572 5.11698891 18.79890572 4.69859314 20.53178406 C3.6042528 25.96471546 3.50916639 31.28663774 3.5625 36.8125 C3.57603516 38.51188721 3.57603516 38.51188721 3.58984375 40.24560547 C3.94945959 57.74940685 9.48692122 73.88364825 20 88 C21.485 88.495 21.485 88.495 23 89 C23.13664062 89.58136719 23.27328125 90.16273438 23.4140625 90.76171875 C25.49369764 98.70592497 36.18069811 104.77048719 42.75 108.8203125 C44.87179957 110.1547839 44.87179957 110.1547839 47 110 C47.33 110.66 47.66 111.32 48 112 C50.52733235 112.65555119 50.52733235 112.65555119 53 113 C53 113.66 53 114.32 53 115 C54.06541016 115.18175781 54.06541016 115.18175781 55.15234375 115.3671875 C56.07144531 115.53476563 56.99054688 115.70234375 57.9375 115.875 C58.85402344 116.03742188 59.77054687 116.19984375 60.71484375 116.3671875 C61.46894531 116.57601562 62.22304687 116.78484375 63 117 C63.33 117.66 63.66 118.32 64 119 C66.22473663 119.56383958 66.22473663 119.56383958 68.91015625 119.8515625 C69.89951172 119.98046875 70.88886719 120.109375 71.90820312 120.2421875 C72.94912109 120.36851562 73.99003906 120.49484375 75.0625 120.625 C76.10728516 120.7590625 77.15207031 120.893125 78.22851562 121.03125 C80.81808861 121.36233696 83.4084462 121.68485796 86 122 C86.05395478 123.62463842 86.09277195 125.24978541 86.125 126.875 C86.14820313 127.77992188 86.17140625 128.68484375 86.1953125 129.6171875 C86 132 86 132 84 134 C80.875 134.125 80.875 134.125 78 134 C78 133.67 78 133.34 78 133 C76.87464844 132.78085938 75.74929687 132.56171875 74.58984375 132.3359375 C64.15877273 130.21453799 54.7475217 127.2852528 45 123 C43.69197364 122.43748089 42.38338842 121.87625934 41.07421875 121.31640625 C39.55248047 120.66478516 39.55248047 120.66478516 38 120 C38 119.34 38 118.68 38 118 C37.28585938 117.75636719 36.57171875 117.51273437 35.8359375 117.26171875 C25.65714796 112.73313883 16.75010163 102.77261465 10.359375 93.796875 C9.06519897 91.97486223 9.06519897 91.97486223 7.453125 90.578125 C5.58474 88.54901871 4.96528713 86.58506817 4 84 C3.14851317 82.24280429 2.29653766 80.48582833 1.4362793 78.73291016 C-1.46143675 72.78938098 -3.77041929 67.39124559 -4.61328125 60.7578125 C-4.80470703 59.88769531 -4.80470703 59.88769531 -5 59 C-5.66 58.67 -6.32 58.34 -7 58 C-7.78103766 54.05797029 -7.8206757 50.00768961 -8 46 C-8.03399902 45.33726074 -8.06799805 44.67452148 -8.10302734 43.99169922 C-8.52116544 34.90940013 -7.99539771 26.30904144 -6.25 17.375 C-6.09313721 16.55837891 -5.93627441 15.74175781 -5.7746582 14.90039062 C-4.60539315 9.44045557 -2.57706303 4.93679822 0 0 Z " fill="#050707" transform="translate(129,93)"/>
<path d="M0 0 C18.50767374 15.43260542 30.89971206 37.1394502 34.10546875 61.08154297 C35.81257306 80.70270487 32.88083532 97.56571103 25.421875 115.71826172 C24.04743053 112.01248106 24.83847885 109.93393362 26.296875 106.34326172 C27.80653645 102.45458205 28.97043448 98.8940865 29.421875 94.71826172 C27.111875 94.71826172 24.801875 94.71826172 22.421875 94.71826172 C22.46699219 95.59998047 22.51210938 96.48169922 22.55859375 97.39013672 C22.41500065 100.88560304 21.75184763 102.84927182 20.234375 105.96826172 C19.55761719 107.37785156 19.55761719 107.37785156 18.8671875 108.81591797 C18.39023437 109.77369141 17.91328125 110.73146484 17.421875 111.71826172 C16.94492187 112.68634766 16.46796875 113.65443359 15.9765625 114.65185547 C14.80395488 117.01382225 13.61948901 119.36889978 12.421875 121.71826172 C11.761875 121.71826172 11.101875 121.71826172 10.421875 121.71826172 C10.133125 122.35763672 9.844375 122.99701172 9.546875 123.65576172 C8.421875 125.71826172 8.421875 125.71826172 6.421875 126.71826172 C6.751875 124.73826172 7.081875 122.75826172 7.421875 120.71826172 C8.081875 120.71826172 8.741875 120.71826172 9.421875 120.71826172 C21.98353036 98.67438593 26.91829609 75.84513028 20.421875 50.87451172 C16.37164369 37.97772254 10.42040151 26.81623226 1.421875 16.71826172 C0.75671875 15.95900391 0.0915625 15.19974609 -0.59375 14.41748047 C-14.75458083 -0.76607703 -35.36573912 -9.48045486 -55.9609375 -10.56298828 C-80.02706473 -11.31002909 -101.47444994 -4.07379478 -119.28735352 12.44165039 C-124.73304289 17.66308967 -129.39542944 23.44421838 -133.578125 29.71826172 C-136.3984375 30.01123047 -136.3984375 30.01123047 -139.703125 29.90576172 C-141.34667969 29.86515625 -141.34667969 29.86515625 -143.0234375 29.82373047 C-144.28800781 29.77152344 -144.28800781 29.77152344 -145.578125 29.71826172 C-137.30047896 10.00958068 -118.79589568 -5.74077984 -99.48828125 -14.13720703 C-95.57992496 -15.72510961 -91.61023671 -17.04735361 -87.578125 -18.28173828 C-86.52109375 -18.62076172 -85.4640625 -18.95978516 -84.375 -19.30908203 C-54.72834636 -27.23189464 -23.4019024 -19.00680501 0 0 Z " fill="#030303" transform="translate(277.578125,56.28173828125)"/>
<path d="M0 0 C3.3 0 6.6 0 10 0 C10 24.42 10 48.84 10 74 C6.7 74 3.4 74 0 74 C0 63.44 0 52.88 0 42 C-9.57 42 -19.14 42 -29 42 C-28.93709377 51.44914123 -28.86169451 60.89795579 -28.76428509 70.34680557 C-28.71955388 74.73427749 -28.68030393 79.12165596 -28.65356445 83.50927734 C-28.62755875 87.74344679 -28.58717604 91.97725717 -28.53681374 96.21120453 C-28.52012646 97.8266834 -28.50862376 99.4422244 -28.50238609 101.0577774 C-28.49276496 103.32047687 -28.46473131 105.58225388 -28.43237305 107.84472656 C-28.42126999 109.13268127 -28.41016693 110.42063599 -28.39872742 111.74761963 C-27.98122765 115.15312423 -27.32843993 116.54538488 -25 119 C-23.515 118.505 -23.515 118.505 -22 118 C-20.783125 117.814375 -19.56625 117.62875 -18.3125 117.4375 C-1.48088682 113.72464415 11.41421937 102.02949138 23 90 C23 93.50358888 22.06166088 94.63264272 19.80078125 97.19921875 C6.70224007 110.29775993 -10.91694778 121.92065259 -30 122 C-31.51121024 118.97757952 -31.17922091 115.83847169 -31.20532227 112.52099609 C-31.21522186 111.75017197 -31.22512146 110.97934784 -31.23532104 110.18516541 C-31.2669683 107.6312876 -31.29170617 105.07739118 -31.31640625 102.5234375 C-31.336973 100.75509145 -31.35796939 98.98675035 -31.37937927 97.21841431 C-31.43462881 92.55940757 -31.48402536 87.90035625 -31.53222656 83.24127197 C-31.58242056 78.48893253 -31.63811758 73.73665798 -31.69335938 68.984375 C-31.80097619 59.65630541 -31.90241333 50.32817953 -32 41 C-33.65 41 -35.3 41 -37 41 C-36.99777939 41.63797012 -36.99555878 42.27594025 -36.99327087 42.9332428 C-36.97078372 49.70052518 -36.95591689 56.46779662 -36.94506836 63.23510742 C-36.9401042 65.74552849 -36.93333068 68.25594677 -36.92456055 70.76635742 C-36.86978315 86.87413287 -37.1159077 102.91474953 -38 119 C-38.33 119 -38.66 119 -39 119 C-39 90.29 -39 61.58 -39 32 C-26.13 32 -13.26 32 0 32 C0 21.44 0 10.88 0 0 Z " fill="#1A1B1D" transform="translate(260,93)"/>
<path d="M0 0 C22.28535702 10.58442809 38.17441623 30.18966331 47 53 C55.34227825 78.36547526 53.01252385 102.63295166 43 127 C41.62555553 123.29421934 42.41660385 121.2156719 43.875 117.625 C45.38466145 113.73632033 46.54855948 110.17582478 47 106 C44.69 106 42.38 106 40 106 C40.04511719 106.88171875 40.09023438 107.7634375 40.13671875 108.671875 C39.99312565 112.16734132 39.32997263 114.1310101 37.8125 117.25 C37.13574219 118.65958984 37.13574219 118.65958984 36.4453125 120.09765625 C35.96835937 121.05542969 35.49140625 122.01320313 35 123 C34.52304687 123.96808594 34.04609375 124.93617188 33.5546875 125.93359375 C32.38207988 128.29556053 31.19761401 130.65063806 30 133 C29.34 133 28.68 133 28 133 C27.71125 133.639375 27.4225 134.27875 27.125 134.9375 C26 137 26 137 24 138 C24.495 135.03 24.495 135.03 25 132 C25.66 132 26.32 132 27 132 C39.56165536 109.95612421 44.49642109 87.12686856 38 62.15625 C31.90684781 42.75437064 20.36599789 24.81959873 2.65234375 14.19140625 C2.10707031 13.79824219 1.56179688 13.40507813 1 13 C1 12.34 1 11.68 1 11 C-0.29233607 9.62689293 -1.62437146 8.28965176 -3 7 C-2.01 4.69 -1.02 2.38 0 0 Z " fill="#030505" transform="translate(260,45)"/>
<path d="M0 0 C0.598125 0.33 1.19625 0.66 1.8125 1 C4.05386471 2.20787988 4.05386471 2.20787988 7 2 C9.47095462 5.56915668 11.57582512 9.24601942 13.703125 13.02734375 C16.74049773 18.36915796 19.45325966 22.86659969 24 27 C24 27.66 24 28.32 24 29 C24.56074219 29.23976562 25.12148437 29.47953125 25.69921875 29.7265625 C28.48801241 31.27010534 30.5003706 33.1830285 32.8125 35.375 C39.29773629 41.28102777 44.13352119 44.37779096 53 45 C53 45.66 53 46.32 53 47 C54.06541016 47.18175781 54.06541016 47.18175781 55.15234375 47.3671875 C56.07144531 47.53476563 56.99054688 47.70234375 57.9375 47.875 C59.31228516 48.11863281 59.31228516 48.11863281 60.71484375 48.3671875 C61.46894531 48.57601562 62.22304687 48.78484375 63 49 C63.33 49.66 63.66 50.32 64 51 C66.22473663 51.56383958 66.22473663 51.56383958 68.91015625 51.8515625 C69.89951172 51.98046875 70.88886719 52.109375 71.90820312 52.2421875 C72.94912109 52.36851562 73.99003906 52.49484375 75.0625 52.625 C76.10728516 52.7590625 77.15207031 52.893125 78.22851562 53.03125 C80.81808861 53.36233696 83.4084462 53.68485796 86 54 C86.05395478 55.62463842 86.09277195 57.24978541 86.125 58.875 C86.14820313 59.77992188 86.17140625 60.68484375 86.1953125 61.6171875 C86 64 86 64 84 66 C80.875 66.125 80.875 66.125 78 66 C78 65.67 78 65.34 78 65 C76.87464844 64.78085938 75.74929687 64.56171875 74.58984375 64.3359375 C64.15877273 62.21453799 54.7475217 59.2852528 45 55 C43.69197364 54.43748089 42.38338842 53.87625934 41.07421875 53.31640625 C40.05972656 52.88199219 39.04523438 52.44757813 38 52 C38 51.34 38 50.68 38 50 C37.01 49.67 36.02 49.34 35 49 C35 48.01 35 47.02 35 46 C34.30777344 45.78601563 33.61554688 45.57203125 32.90234375 45.3515625 C29.14816581 43.60331813 26.55094512 41.20234179 23.5625 38.375 C22.98483887 37.83302979 22.40717773 37.29105957 21.81201172 36.73266602 C17.6828761 32.79377268 14.10877498 28.79951225 11 24 C10.39414063 23.113125 9.78828125 22.22625 9.1640625 21.3125 C5.78794354 16.24143152 3.3851473 11.91835664 2 6 C1.34 5.34 0.68 4.68 0 4 C0 2.68 0 1.36 0 0 Z " fill="#2F3032" transform="translate(129,161)"/>
<path d="M0 0 C0.99 0.33 1.98 0.66 3 1 C3.33 1.99 3.66 2.98 4 4 C4.99 4.33 5.98 4.66 7 5 C7.01401855 6.32837891 7.01401855 6.32837891 7.02832031 7.68359375 C7.35404489 32.23428576 8.75008975 54.523306 24 75 C25.485 75.495 25.485 75.495 27 76 C27.13664062 76.58136719 27.27328125 77.16273438 27.4140625 77.76171875 C29.49369764 85.70592497 40.18069811 91.77048719 46.75 95.8203125 C48.87179957 97.1547839 48.87179957 97.1547839 51 97 C51.33 97.99 51.66 98.98 52 100 C43.02438916 98.10207348 36.45056107 91.09219656 30 85 C28.6696875 83.7625 28.6696875 83.7625 27.3125 82.5 C20.3863277 75.01224617 15.59756471 67.04141144 11 58 C8.525 58.495 8.525 58.495 6 59 C5.505 57.515 5.505 57.515 5 56 C5 56.99 5 57.98 5 59 C5.66 59.66 6.32 60.32 7 61 C7.41844199 62.27825431 7.78646289 63.57330096 8.125 64.875 C12.75959157 79.31175273 25.00172861 91.31316079 37 100 C37.99 100.495 37.99 100.495 39 101 C39 101.66 39 102.32 39 103 C34.3160694 101.54007358 31.18700634 98.80600665 27.6875 95.5 C27.11789551 94.96898682 26.54829102 94.43797363 25.96142578 93.89086914 C21.76768418 89.90687404 18.06636884 85.68650355 14.5859375 81.05859375 C13.09856405 79.00882499 13.09856405 79.00882499 11.4140625 77.53515625 C9.56717169 75.53010628 8.95485543 73.55468867 8 71 C5.76483669 66.38285514 5.76483669 66.38285514 3.47851562 61.79101562 C0.93759992 56.53115828 -1.02847869 51.01687082 0.9375 45.25 C1.288125 44.5075 1.63875 43.765 2 43 C2 41.68 2 40.36 2 39 C1.34 39.66 0.68 40.32 0 41 C-2.83212985 33.38865103 -3.04787287 24.84744884 -1 17 C-0.95741274 15.5839736 -0.95924948 14.16608045 -1 12.75 C-1.05765898 8.40395442 -0.62527297 4.29875168 0 0 Z M2 5 C2.33 5.66 2.66 6.32 3 7 C3.33 6.34 3.66 5.68 4 5 C3.34 5 2.68 5 2 5 Z " fill="#0E1011" transform="translate(125,106)"/>
<path d="M0 0 C3.3 0 6.6 0 10 0 C10 24.42 10 48.84 10 74 C6.7 74 3.4 74 0 74 C0 63.44 0 52.88 0 42 C-9.57 42 -19.14 42 -29 42 C-28.93709377 51.44914123 -28.86169451 60.89795579 -28.76428509 70.34680557 C-28.71955388 74.73427749 -28.68030393 79.12165596 -28.65356445 83.50927734 C-28.62755875 87.74344679 -28.58717604 91.97725717 -28.53681374 96.21120453 C-28.52012646 97.8266834 -28.50862376 99.4422244 -28.50238609 101.0577774 C-28.49276496 103.32047687 -28.46473131 105.58225388 -28.43237305 107.84472656 C-28.42126999 109.13268127 -28.41016693 110.42063599 -28.39872742 111.74761963 C-27.98122765 115.15312423 -27.32843993 116.54538488 -25 119 C-23.515 118.505 -23.515 118.505 -22 118 C-20.783125 117.814375 -19.56625 117.62875 -18.3125 117.4375 C-1.48088682 113.72464415 11.41421937 102.02949138 23 90 C23 93.50358888 22.06166088 94.63264272 19.80078125 97.19921875 C6.70224007 110.29775993 -10.91694778 121.92065259 -30 122 C-31.51659403 118.96681195 -31.08052366 115.84323036 -31.02172852 112.52099609 C-31.0073172 111.3647599 -31.0073172 111.3647599 -30.99261475 110.18516541 C-30.95956993 107.63116477 -30.91925858 105.07733228 -30.87890625 102.5234375 C-30.85461048 100.75510251 -30.83076666 98.98676126 -30.80735779 97.21841431 C-30.74446275 92.55929441 -30.67541148 87.9002851 -30.60510254 83.24127197 C-30.53446799 78.4890243 -30.46962185 73.7366981 -30.40429688 68.984375 C-30.27521469 59.65616369 -30.13963247 50.32805893 -30 41 C-25.92514175 40.83219605 -21.8500684 40.67165682 -17.7746582 40.51782227 C-16.38851232 40.46447778 -15.00244111 40.40915441 -13.61645508 40.35180664 C-11.62341774 40.26968579 -9.63006691 40.19528785 -7.63671875 40.12109375 C-6.43748779 40.0739624 -5.23825684 40.02683105 -4.00268555 39.97827148 C-1 40 -1 40 2 41 C2 51.23 2 61.46 2 72 C3.98 72 5.96 72 8 72 C8 49.23 8 26.46 8 3 C5.525 2.505 5.525 2.505 3 2 C1.67112965 3.10267706 1.67112965 3.10267706 1.88647461 5.86743164 C1.89171143 7.11903076 1.89694824 8.37062988 1.90234375 9.66015625 C1.90446617 10.65685585 1.90446617 10.65685585 1.90663147 11.6736908 C1.91224482 13.80333899 1.92479946 15.93288339 1.9375 18.0625 C1.94251329 19.50325369 1.94707649 20.94400903 1.95117188 22.38476562 C1.96221855 25.92321102 1.97949208 29.46159539 2 33 C-2.29930476 34.02992723 -6.52668984 34.21399703 -10.92578125 34.31640625 C-11.67337204 34.33718735 -12.42096283 34.35796844 -13.19120789 34.37937927 C-15.56488396 34.44444189 -17.93866487 34.5035571 -20.3125 34.5625 C-21.92774495 34.60572646 -23.54297953 34.64934204 -25.15820312 34.69335938 C-29.10536315 34.80080646 -33.05260964 34.90020046 -37 35 C-37.33 45.56 -37.66 56.12 -38 67 C-38.33 67 -38.66 67 -39 67 C-39 55.45 -39 43.9 -39 32 C-26.13 32 -13.26 32 0 32 C0 21.44 0 10.88 0 0 Z " fill="#0D0F10" transform="translate(260,93)"/>
<path d="M0 0 C6.78735982 8.40760736 7.72360083 18.49168658 8.3125 28.9375 C8.39822266 30.14212891 8.48394531 31.34675781 8.57226562 32.58789062 C9.17733763 41.86048976 9.17733763 41.86048976 8 46 C7.92369535 48.24957415 7.86320411 50.49970328 7.8125 52.75 C7.31143623 61.57045024 4.46155735 68.94420447 1 77 C-0.37444447 73.29421934 0.41660385 71.2156719 1.875 67.625 C3.38466145 63.73632033 4.54855948 60.17582478 5 56 C2.69 56 0.38 56 -2 56 C-1.95488281 56.88171875 -1.90976562 57.7634375 -1.86328125 58.671875 C-2.00687435 62.16734132 -2.67002737 64.1310101 -4.1875 67.25 C-4.86425781 68.65958984 -4.86425781 68.65958984 -5.5546875 70.09765625 C-6.03164063 71.05542969 -6.50859375 72.01320313 -7 73 C-7.47695313 73.96808594 -7.95390625 74.93617188 -8.4453125 75.93359375 C-9.61792012 78.29556053 -10.80238599 80.65063806 -12 83 C-12.66 83 -13.32 83 -14 83 C-14.28875 83.639375 -14.5775 84.27875 -14.875 84.9375 C-16 87 -16 87 -18 88 C-17.67 86.02 -17.34 84.04 -17 82 C-16.34 82 -15.68 82 -15 82 C-5.10128003 64.62918802 -0.88488209 48.32322103 -0.75 28.3125 C-0.7406543 27.36262207 -0.73130859 26.41274414 -0.72167969 25.43408203 C-0.75788215 17.3901729 -1.99368329 9.77842227 -4 2 C-3.01 2 -2.02 2 -1 2 C-0.67 1.34 -0.34 0.68 0 0 Z " fill="#161719" transform="translate(302,95)"/>
<path d="M0 0 C1.5719726 3.1439452 0.13745919 5.40224449 -0.875 8.6875 C-2.01271429 12.39103848 -2.97651056 15.80543257 -3.44140625 19.65625 C-4.0332909 23.19927981 -4.94773982 24.95782373 -7.0625 27.8125 C-9.35267697 30.62858749 -9.35267697 30.62858749 -10 34 C-10.99 34.66 -11.98 35.32 -13 36 C-13.33 36.99 -13.66 37.98 -14 39 C-15.62724935 40.72895244 -17.2869937 42.35886809 -19 44 C-20.60685596 45.60147286 -22.21085759 47.20581304 -23.8125 48.8125 C-25.20833333 50.20833333 -26.60416667 51.60416667 -28 53 C-28.66 52.67 -29.32 52.34 -30 52 C-29.34 51.01 -28.68 50.02 -28 49 C-29.32 48.01 -30.64 47.02 -32 46 C-31.60756803 42.46811229 -30.07689761 40.92679575 -27.53515625 38.5703125 C-24.91052658 35.88557681 -22.7725486 32.81279888 -20.55078125 29.79296875 C-20.03902344 29.20128906 -19.52726562 28.60960937 -19 28 C-18.34 28 -17.68 28 -17 28 C-16.9175 27.484375 -16.835 26.96875 -16.75 26.4375 C-15.91138361 23.71199674 -14.55829086 21.50426185 -13.1171875 19.05859375 C-9.97972214 13.27732016 -7.99812625 7.48782061 -7 1 C-4.53721199 -0.231394 -2.7204945 -0.07159196 0 0 Z " fill="#26282A" transform="translate(307,150)"/>
<path d="M0 0 C0.99 0.33 1.98 0.66 3 1 C2.67 1.99 2.34 2.98 2 4 C3.75244247 5.6483633 3.75244247 5.6483633 6 7 C8.11367548 6.63850448 8.11367548 6.63850448 10 6 C14.34756721 10.72058334 18.13785364 15.52041324 21.59765625 20.92578125 C23.07412586 23.21687263 23.07412586 23.21687263 25.5625 25.8125 C35.36961963 37.25939526 37.19930431 55.75873097 37.1875 70.25 C37.18814453 71.07540283 37.18878906 71.90080566 37.18945312 72.7512207 C37.13316575 79.30806058 36.4327366 85.59106219 35 92 C34.67 92 34.34 92 34 92 C33.97274659 90.2709226 33.95349013 88.54171824 33.9375 86.8125 C33.92589844 85.84957031 33.91429687 84.88664062 33.90234375 83.89453125 C34 81 34 81 34.51635742 78.69238281 C35.4526705 73.4800352 34.73312574 68.19285309 34.375 62.9375 C34.31699219 61.77283203 34.25898438 60.60816406 34.19921875 59.40820312 C33.63549976 51.11414097 31.65238325 44.45915263 28 37 C26.35 37.66 24.7 38.32 23 39 C21 36 21 36 19.3125 32.5 C13.73265705 21.23659954 6.75876062 11.88207589 -3 4 C-2.34 3.67 -1.68 3.34 -1 3 C-0.67 2.01 -0.34 1.02 0 0 Z M8 7 C8.33 7.66 8.66 8.32 9 9 C9.33 8.34 9.66 7.68 10 7 C9.34 7 8.68 7 8 7 Z " fill="#0B0D0D" transform="translate(275,60)"/>
<path d="M0 0 C3 1.5 3 1.5 6 3 C6 6 6 6 4.6875 7.38671875 C3.125 8.59114583 1.5625 9.79557292 0 11 C-0.99 10.34 -1.98 9.68 -3 9 C-3.99 10.32 -4.98 11.64 -6 13 C-5.34 13 -4.68 13 -4 13 C-5.14297831 15.80549222 -6.29237307 17.28506374 -8.5 19.4375 C-11.0550509 22.05642717 -11.7263634 23.65670393 -13 27 C-14.2495989 29.90562073 -15.44671126 32.0809677 -18 34 C-22.0625164 34.603816 -25.92386963 34.40956334 -30 34 C-26.20072601 25.45163352 -21.2859176 17.67271419 -13 13 C-12.278125 12.278125 -11.55625 11.55625 -10.8125 10.8125 C-10.214375 10.214375 -9.61625 9.61625 -9 9 C-8.34 9 -7.68 9 -7 9 C-6.67 8.01 -6.34 7.02 -6 6 C-5.34 6 -4.68 6 -4 6 C-4 5.34 -4 4.68 -4 4 C-2.70766393 2.62689293 -1.37562854 1.28965176 0 0 Z " fill="#090A0A" transform="translate(162,52)"/>
<path d="M0 0 C3.3 0 6.6 0 10 0 C10 22.77 10 45.54 10 69 C9.67 69 9.34 69 9 69 C7.60973331 55.40453971 7.88847391 41.77275356 7.9375 28.125 C7.9425248 25.68359467 7.94708597 23.24218833 7.95117188 20.80078125 C7.96210034 14.86716538 7.9787608 8.93358746 8 3 C6.34385343 2.61781233 4.67542976 2.28604898 3 2 C1.67112965 3.10267706 1.67112965 3.10267706 1.88647461 5.86743164 C1.89171143 7.11903076 1.89694824 8.37062988 1.90234375 9.66015625 C1.90446617 10.65685585 1.90446617 10.65685585 1.90663147 11.6736908 C1.91224482 13.80333899 1.92479946 15.93288339 1.9375 18.0625 C1.94251329 19.50325369 1.94707649 20.94400903 1.95117188 22.38476562 C1.96221855 25.92321102 1.97949208 29.46159539 2 33 C-2.29930476 34.02992723 -6.52668984 34.21399703 -10.92578125 34.31640625 C-11.67337204 34.33718735 -12.42096283 34.35796844 -13.19120789 34.37937927 C-15.56488396 34.44444189 -17.93866487 34.5035571 -20.3125 34.5625 C-21.92774495 34.60572646 -23.54297953 34.64934204 -25.15820312 34.69335938 C-29.10536315 34.80080646 -33.05260964 34.90020046 -37 35 C-37.33 45.56 -37.66 56.12 -38 67 C-38.33 67 -38.66 67 -39 67 C-39 55.45 -39 43.9 -39 32 C-26.13 32 -13.26 32 0 32 C0 21.44 0 10.88 0 0 Z " fill="#070809" transform="translate(260,93)"/>
<path d="M0 0 C3.96 0 7.92 0 12 0 C14.00787786 3.4331126 16.00651521 6.87104484 18 10.3125 C18.57234375 11.28896484 19.1446875 12.26542969 19.734375 13.27148438 C20.27578125 14.20927734 20.8171875 15.14707031 21.375 16.11328125 C22.12910156 17.40939331 22.12910156 17.40939331 22.8984375 18.73168945 C24 21 24 21 24 24 C20.37 24 16.74 24 13 24 C10.82989757 20.18944575 8.66449525 16.37624164 6.5 12.5625 C5.87996094 11.47388672 5.25992188 10.38527344 4.62109375 9.26367188 C4.03457031 8.22919922 3.44804687 7.19472656 2.84375 6.12890625 C2.29912109 5.17056885 1.75449219 4.21223145 1.19335938 3.22485352 C0 1 0 1 0 0 Z " fill="#0F1011" transform="translate(184,143)"/>
<path d="M0 0 C1.12722117 4.13122531 1.37915923 8.24117013 1.625 12.5 C1.6765625 13.25925781 1.728125 14.01851562 1.78125 14.80078125 C1.99869869 18.45264005 1.92438788 21.4858273 1 25 C0.92369535 27.24957415 0.86320411 29.49970328 0.8125 31.75 C0.31143623 40.57045024 -2.53844265 47.94420447 -6 56 C-7.37444447 52.29421934 -6.58339615 50.2156719 -5.125 46.625 C-3.61533855 42.73632033 -2.45144052 39.17582478 -2 35 C-3.98 35 -5.96 35 -8 35 C-7.93941406 34.41621582 -7.87882812 33.83243164 -7.81640625 33.23095703 C-7.53905796 30.52947806 -7.26949891 27.82727287 -7 25.125 C-6.90460938 24.2071875 -6.80921875 23.289375 -6.7109375 22.34375 C-6.17142945 16.87159696 -5.93573731 11.55024486 -6.14794922 6.05273438 C-6 4 -6 4 -4.125 1.375 C-2 0 -2 0 0 0 Z " fill="#1D1E20" transform="translate(309,116)"/>
<path d="M0 0 C2.9375 0.8125 2.9375 0.8125 6 2 C6.495 3.485 6.495 3.485 7 5 C-1.82513054 12.64573522 -12.04451455 20.9214238 -24 22 C-24 21.01 -24 20.02 -24 19 C-24.99 19.33 -25.98 19.66 -27 20 C-29.1875 19.5625 -29.1875 19.5625 -31 19 C-30 17 -30 17 -27.5859375 16.0625 C-26.52632812 15.711875 -25.46671875 15.36125 -24.375 15 C-15.60752093 11.76681004 -6.64664314 6.64664314 0 0 Z " fill="#343638" transform="translate(273,195)"/>
<path d="M0 0 C3.3 0 6.6 0 10 0 C10.02886984 3.97915159 10.04675406 7.95827653 10.0625 11.9375 C10.07087891 13.07380859 10.07925781 14.21011719 10.08789062 15.38085938 C10.09111328 16.46044922 10.09433594 17.54003906 10.09765625 18.65234375 C10.10289307 19.65257568 10.10812988 20.65280762 10.11352539 21.68334961 C10 24 10 24 9 25 C6.03 25 3.06 25 0 25 C0 16.75 0 8.5 0 0 Z " fill="#141517" transform="translate(221,93)"/>
<path d="M0 0 C2.60443318 3.90664977 3.01863396 7.83701877 3.76757812 12.375 C4.51103443 16.4989234 5.61113799 19.55311833 8 23 C7.34 23 6.68 23 6 23 C5.67 23.66 5.34 24.32 5 25 C4.01 25 3.02 25 2 25 C1.67 24.01 1.34 23.02 1 22 C1 22.99 1 23.98 1 25 C1.66 25.66 2.32 26.32 3 27 C3.41844199 28.27825431 3.78646289 29.57330096 4.125 30.875 C8.75959157 45.31175273 21.00172861 57.31316079 33 66 C33.99 66.495 33.99 66.495 35 67 C35 67.66 35 68.32 35 69 C30.3160694 67.54007358 27.18700634 64.80600665 23.6875 61.5 C23.11789551 60.96898682 22.54829102 60.43797363 21.96142578 59.89086914 C17.76768418 55.90687404 14.06636884 51.68650355 10.5859375 47.05859375 C9.09856405 45.00882499 9.09856405 45.00882499 7.4140625 43.53515625 C5.56717169 41.53010628 4.95485543 39.55468867 4 37 C1.76483669 32.38285514 1.76483669 32.38285514 -0.52148438 27.79101562 C-3.06240008 22.53115828 -5.02847869 17.01687082 -3.0625 11.25 C-2.711875 10.5075 -2.36125 9.765 -2 9 C-2 7.68 -2 6.36 -2 5 C-2.66 5.66 -3.32 6.32 -4 7 C-4 5.68 -4 4.36 -4 3 C-2 1.25 -2 1.25 0 0 Z " fill="#1A1B1D" transform="translate(129,140)"/>
<path d="M0 0 C1.4540625 0.0309375 1.4540625 0.0309375 2.9375 0.0625 C2.6075 1.3825 2.2775 2.7025 1.9375 4.0625 C1.2775 4.0625 0.6175 4.0625 -0.0625 4.0625 C0.41968994 4.85418579 0.41968994 4.85418579 0.91162109 5.66186523 C2.20830731 8.69620973 2.26013706 11.17594854 2.3515625 14.47265625 C2.39023438 15.70951172 2.42890625 16.94636719 2.46875 18.22070312 C2.4996875 19.50912109 2.530625 20.79753906 2.5625 22.125 C2.60117188 23.41728516 2.63984375 24.70957031 2.6796875 26.04101562 C2.9375 34.86648996 2.9375 34.86648996 2.9375 39.0625 C0.6275 38.7325 -1.6825 38.4025 -4.0625 38.0625 C-4.08714928 32.81144558 -4.10533568 27.56042455 -4.11743164 22.30932617 C-4.12247218 20.52155979 -4.12930454 18.73379755 -4.13793945 16.94604492 C-4.1500173 14.38198832 -4.15573094 11.81798603 -4.16015625 9.25390625 C-4.16531754 8.4497377 -4.17047882 7.64556915 -4.17579651 6.81703186 C-4.17599215 4.89848285 -4.12451983 2.98004632 -4.0625 1.0625 C-3.0625 0.0625 -3.0625 0.0625 0 0 Z " fill="#18191B" transform="translate(169.0625,126.9375)"/>
<path d="M0 0 C0.99 0.66 1.98 1.32 3 2 C3.26727014 4.48340903 3.34866334 6.71472068 3.29296875 9.1953125 C3.28872391 9.90275604 3.28447906 10.61019958 3.28010559 11.33908081 C3.26329547 13.60143905 3.22564128 15.86291048 3.1875 18.125 C3.17245607 19.65753923 3.15876716 21.1900924 3.14648438 22.72265625 C3.11338462 26.48211318 3.06158825 30.24090618 3 34 C1.02 34 -0.96 34 -3 34 C-3.07430494 29.80081815 -3.12867413 25.60198726 -3.16479492 21.40234375 C-3.17985681 19.97454154 -3.20031062 18.5467854 -3.22631836 17.11914062 C-3.26281842 15.06368627 -3.27975166 13.00884495 -3.29296875 10.953125 C-3.3086792 9.71723633 -3.32438965 8.48134766 -3.34057617 7.20800781 C-2.97859576 3.79838589 -2.32290222 2.45418505 0 0 Z " fill="#232526" transform="translate(265,131)"/>
<path d="M0 0 C0.33 0 0.66 0 1 0 C0.73275326 6.01305159 0.11881275 10.29278543 -4 15 C-7.28515305 16.19016037 -10.61024062 16.19741022 -14.078125 16.31640625 C-15.64675293 16.37356812 -15.64675293 16.37356812 -17.24707031 16.43188477 C-18.56803711 16.47498779 -19.88900391 16.51809082 -21.25 16.5625 C-25.4575 16.706875 -29.665 16.85125 -34 17 C-34.33 29.21 -34.66 41.42 -35 54 C-32.36 54 -29.72 54 -27 54 C-27 54.66 -27 55.32 -27 56 C-30.3 56 -33.6 56 -37 56 C-37 42.14 -37 28.28 -37 14 C-22.8125 13.75 -22.8125 13.75 -18.36254883 13.70214844 C-17.19747803 13.6715332 -16.03240723 13.64091797 -14.83203125 13.609375 C-13.64327393 13.58842773 -12.4545166 13.56748047 -11.22973633 13.54589844 C-7.41879549 12.9017633 -5.72901023 11.68650228 -3 9 C-2.24756445 7.07361988 -2.24756445 7.07361988 -2 5 C-1.3530635 3.3255761 -0.69040574 1.65697379 0 0 Z " fill="#020303" transform="translate(200,111)"/>
<path d="M0 0 C4.73518509 0.67182968 9.51830692 0.95633383 14.28515625 1.32421875 C14.28515625 3.63421875 14.28515625 5.94421875 14.28515625 8.32421875 C6.60120082 8.53799185 -0.27825187 8.34092163 -7.71484375 6.32421875 C-7.33984375 3.38671875 -7.33984375 3.38671875 -6.71484375 0.32421875 C-4.21582728 -0.92528949 -2.68283571 -0.43859522 0 0 Z " fill="#38393B" transform="translate(197.71484375,214.67578125)"/>
<path d="M0 0 C1.65 0 3.3 0 5 0 C5 0.66 5 1.32 5 2 C6.06541016 2.18175781 6.06541016 2.18175781 7.15234375 2.3671875 C8.07144531 2.53476563 8.99054688 2.70234375 9.9375 2.875 C11.31228516 3.11863281 11.31228516 3.11863281 12.71484375 3.3671875 C13.84599609 3.68042969 13.84599609 3.68042969 15 4 C15.33 4.66 15.66 5.32 16 6 C18.22473663 6.56383958 18.22473663 6.56383958 20.91015625 6.8515625 C22.39418945 7.04492188 22.39418945 7.04492188 23.90820312 7.2421875 C24.94912109 7.36851562 25.99003906 7.49484375 27.0625 7.625 C28.10728516 7.7590625 29.15207031 7.893125 30.22851562 8.03125 C32.81808861 8.36233696 35.4084462 8.68485796 38 9 C38.05395478 10.62463842 38.09277195 12.24978541 38.125 13.875 C38.14820313 14.77992188 38.17140625 15.68484375 38.1953125 16.6171875 C38 19 38 19 36 21 C32.875 21.125 32.875 21.125 30 21 C30 20.67 30 20.34 30 20 C28.19015625 19.61908203 28.19015625 19.61908203 26.34375 19.23046875 C24.72909815 18.88313085 23.11451863 18.5354566 21.5 18.1875 C20.70851562 18.02185547 19.91703125 17.85621094 19.1015625 17.68554688 C13.84633795 16.54404318 8.99390958 14.99870922 4 13 C7.56486879 11.97217974 9.45408354 12.19663142 13 13.375 C18.37725635 15.12916594 23.07399108 16.16517938 28.75 16.5625 C29.92046875 16.64628906 31.0909375 16.73007813 32.296875 16.81640625 C33.63492188 16.90728516 33.63492188 16.90728516 35 17 C35 14.69 35 12.38 35 10 C34.05898437 10.03480469 33.11796875 10.06960937 32.1484375 10.10546875 C30.90320313 10.13253906 29.65796875 10.15960938 28.375 10.1875 C27.14523438 10.22230469 25.91546875 10.25710937 24.6484375 10.29296875 C20.69641386 9.9756221 18.42159491 8.92888778 15 7 C12.67793475 6.29508733 10.34406932 5.62787571 8 5 C5.99638693 4.34427209 3.99508067 3.68124706 2 3 C2 2.34 2 1.68 2 1 C1.34 0.67 0.68 0.34 0 0 Z " fill="#1F2022" transform="translate(177,206)"/>
<path d="M0 0 C0.598125 0.33 1.19625 0.66 1.8125 1 C4.05386471 2.20787988 4.05386471 2.20787988 7 2 C10.67462001 6.31319726 12.93270461 11.777359 15 17 C13.68 18.32 12.36 19.64 11 21 C8 20 8 20 6.39453125 17.34765625 C5.87246094 16.26355469 5.35039062 15.17945313 4.8125 14.0625 C4.28269531 12.98097656 3.75289062 11.89945313 3.20703125 10.78515625 C2 8 2 8 2 6 C1.34 5.34 0.68 4.68 0 4 C0 2.68 0 1.36 0 0 Z " fill="#222324" transform="translate(129,161)"/>
<path d="M0 0 C0.66 0.33 1.32 0.66 2 1 C4.11830762 18.15368671 2.6493989 36.7211217 -6 52 C-6.94377904 53.89271535 -7.88141519 55.78850781 -8.8125 57.6875 C-9.53960284 59.12604501 -10.26796224 60.56395996 -11 62 C-11.66 62 -12.32 62 -13 62 C-13.28875 62.639375 -13.5775 63.27875 -13.875 63.9375 C-15 66 -15 66 -17 67 C-16.67 65.02 -16.34 63.04 -16 61 C-15.34 61 -14.68 61 -14 61 C-2.68581613 41.145255 0.43562486 22.70089551 0 0 Z " fill="#0E0F12" transform="translate(301,116)"/>
<path d="M0 0 C0.66 0 1.32 0 2 0 C2.19335938 0.69867188 2.38671875 1.39734375 2.5859375 2.1171875 C2.84632812 3.02726563 3.10671875 3.93734375 3.375 4.875 C3.63023437 5.77992188 3.88546875 6.68484375 4.1484375 7.6171875 C4.8604315 10.14569726 4.8604315 10.14569726 7 12 C7.41844199 13.27825431 7.78646289 14.57330096 8.125 15.875 C12.75959157 30.31175273 25.00172861 42.31316079 37 51 C37.99 51.495 37.99 51.495 39 52 C39 52.66 39 53.32 39 54 C34.3160694 52.54007358 31.18700634 49.80600665 27.6875 46.5 C27.11789551 45.96898682 26.54829102 45.43797363 25.96142578 44.89086914 C21.76768418 40.90687404 18.06636884 36.68650355 14.5859375 32.05859375 C13.09856405 30.00882499 13.09856405 30.00882499 11.4140625 28.53515625 C9.56638539 26.52925265 8.95418542 24.5564968 8 22 C6.5085046 18.89300497 5.01730749 15.78697672 3.47851562 12.703125 C1.41949818 8.41896981 0.44681721 4.73748659 0 0 Z " fill="#0A0B0D" transform="translate(125,155)"/>
<path d="M0 0 C7.5625 9.03810976 7.5625 9.03810976 7.5625 13.0625 C2.25322575 13.49768641 2.25322575 13.49768641 -0.4375 13.0625 C-2.89071644 10.22596849 -3.4375 8.81126504 -3.4375 5.0625 C-4.0975 5.0625 -4.7575 5.0625 -5.4375 5.0625 C-5.7675 3.0825 -6.0975 1.1025 -6.4375 -0.9375 C-3.36895541 -2.4149474 -2.71956161 -2.16170282 0 0 Z " fill="#1D1E20" transform="translate(198.4375,152.9375)"/>
<path d="M0 0 C11.88 0 23.76 0 36 0 C36 0.66 36 1.32 36 2 C24.78 2.33 13.56 2.66 2 3 C1.67 13.56 1.34 24.12 1 35 C0.67 35 0.34 35 0 35 C0 23.45 0 11.9 0 0 Z " fill="#0D0F10" transform="translate(221,125)"/>
<path d="M0 0 C1.61732041 3.23464083 0.99875197 6.74708451 0.87890625 10.2890625 C0.85529526 11.10748627 0.83168427 11.92591003 0.80735779 12.76913452 C0.73067056 15.3879306 0.64666817 18.00643471 0.5625 20.625 C0.50928437 22.39842312 0.45654393 24.17186058 0.40429688 25.9453125 C0.2750486 30.29706054 0.13923848 34.64856061 0 39 C2.64 39 5.28 39 8 39 C8 39.66 8 40.32 8 41 C4.7 41 1.4 41 -2 41 C-2.04941382 35.64316151 -2.08572607 30.2864555 -2.10986328 24.92944336 C-2.11992491 23.10682871 -2.1335756 21.28423021 -2.15087891 19.46166992 C-2.17512021 16.84289565 -2.18648138 14.22433469 -2.1953125 11.60546875 C-2.20563507 10.78974899 -2.21595764 9.97402924 -2.22659302 9.1335907 C-2.2273686 5.22869244 -2.21650661 3.32475992 0 0 Z " fill="#040506" transform="translate(165,126)"/>
<path d="M0 0 C0 3.50358888 -0.93833912 4.63264272 -3.19921875 7.19921875 C-14.27897981 18.27897981 -27.22297294 26.05621521 -42 31 C-42.99 31 -43.98 31 -45 31 C-45 30.34 -45 29.68 -45 29 C-43.99582031 28.6596875 -42.99164063 28.319375 -41.95703125 27.96875 C-27.95890307 23.07267492 -16.69905111 16.46772027 -6 6 C-5.35675781 5.37222656 -4.71351563 4.74445313 -4.05078125 4.09765625 C-2.68633973 2.74593679 -1.34034476 1.37561699 0 0 Z " fill="#191B1C" transform="translate(283,183)"/>
<path d="M0 0 C3.96 0 7.92 0 12 0 C13.65 3.3 15.3 6.6 17 10 C13.31197956 8.77065985 12.27643027 7.06140622 10 4 C9.67 4.66 9.34 5.32 9 6 C8.34 6 7.68 6 7 6 C7 7.65 7 9.3 7 11 C7.66 11 8.32 11 9 11 C8.67 12.32 8.34 13.64 8 15 C6.66407203 12.6889639 5.33115569 10.37628245 4 8.0625 C3.6184375 7.40314453 3.236875 6.74378906 2.84375 6.06445312 C0 1.11328125 0 1.11328125 0 0 Z " fill="#020204" transform="translate(184,143)"/>
<path d="M0 0 C1.0625 1.875 1.0625 1.875 2 4 C1.67 4.66 1.34 5.32 1 6 C0.90221834 8.26910971 0.87024354 10.54128942 0.875 12.8125 C0.87242188 14.03582031 0.86984375 15.25914062 0.8671875 16.51953125 C0.98054527 19.49017156 1.30854754 22.1189481 2 25 C2.99 24.34 3.98 23.68 5 23 C5.33 24.65 5.66 26.3 6 28 C5.34 28.33 4.68 28.66 4 29 C3.27840576 30.64363134 2.60648579 32.31050386 2 34 C1.505 32.515 1.505 32.515 1 31 C0.34 30.67 -0.32 30.34 -1 30 C-2.64955698 20.83406547 -3.85326808 8.66985318 0 0 Z " fill="#050607" transform="translate(123,121)"/>
<path d="M0 0 C0.99 0.33 1.98 0.66 3 1 C2.34 8.26 1.68 15.52 1 23 C3.31 23 5.62 23 8 23 C8.33 16.4 8.66 9.8 9 3 C9.33 3 9.66 3 10 3 C10.02887814 6.47914941 10.04675687 9.95826831 10.0625 13.4375 C10.07087891 14.43072266 10.07925781 15.42394531 10.08789062 16.44726562 C10.09111328 17.39150391 10.09433594 18.33574219 10.09765625 19.30859375 C10.10289307 20.18314209 10.10812988 21.05769043 10.11352539 21.95874023 C10 24 10 24 9 25 C6.03 25 3.06 25 0 25 C0 16.75 0 8.5 0 0 Z " fill="#08090A" transform="translate(221,93)"/>
<path d="M0 0 C0.33 0.99 0.66 1.98 1 3 C0.54625 3.4125 0.0925 3.825 -0.375 4.25 C-2.05950374 6.06408095 -2.99265971 7.75285627 -4 10 C-4.66 10 -5.32 10 -6 10 C-6.66 11.98 -7.32 13.96 -8 16 C-4.67426097 16.05155273 -4.67426097 16.05155273 -1 15 C0.60425592 13.27106097 1.7607163 11.52533788 2.95703125 9.49609375 C3.30121094 9.00238281 3.64539063 8.50867188 4 8 C4.66 8 5.32 8 6 8 C5.37530495 9.35350594 4.69429379 10.6808418 4 12 C3.54625 13.0725 3.0925 14.145 2.625 15.25 C0 18 0 18 -2.9296875 18.3828125 C-5.97426784 18.37564878 -8.96693249 18.2575246 -12 18 C-8.94571355 11.12785548 -4.83999371 5.73280809 0 0 Z " fill="#020303" transform="translate(144,68)"/>
<path d="M0 0 C1.65 0.33 3.3 0.66 5 1 C5 4 5 4 4 9 C6.97 10.65 9.94 12.3 13 14 C9.38884694 15.20371769 8.75890242 14.71183147 5.4375 13.125 C4.65246094 12.75632813 3.86742187 12.38765625 3.05859375 12.0078125 C1.70296989 11.34414845 0.35001216 10.67500608 -1 10 C-1 9.34 -1 8.68 -1 8 C-1.99 7.67 -2.98 7.34 -4 7 C-3.01 6.67 -2.02 6.34 -1 6 C-1.33 4.68 -1.66 3.36 -2 2 C-1.34 2 -0.68 2 0 2 C0 1.34 0 0.68 0 0 Z " fill="#2E2F30" transform="translate(168,203)"/>
<path d="M0 0 C1.0767221 10.52794945 -1.95421585 18.5116729 -6 28 C-7.37444447 24.29421934 -6.58339615 22.2156719 -5.125 18.625 C-3.61533855 14.73632033 -2.45144052 11.17582478 -2 7 C-3.98 7 -5.96 7 -8 7 C-7.67 5.35 -7.34 3.7 -7 2 C-6.67 2.66 -6.34 3.32 -6 4 C-5.38125 3.34 -4.7625 2.68 -4.125 2 C-2 0 -2 0 0 0 Z " fill="#161719" transform="translate(309,144)"/>
<path d="M0 0 C0.33 0 0.66 0 1 0 C1 8.58 1 17.16 1 26 C2.98 26 4.96 26 7 26 C7 20.39 7 14.78 7 9 C7.33 9 7.66 9 8 9 C8.33 15.27 8.66 21.54 9 28 C5.7 28 2.4 28 -1 28 C-0.67 18.76 -0.34 9.52 0 0 Z " fill="#131516" transform="translate(261,139)"/>
<path d="M0 0 C0.66 1.32 1.32 2.64 2 4 C2.66 3.34 3.32 2.68 4 2 C5 5 5 5 4.25 6.82421875 C2.93836856 8.77936936 1.75301285 10.42101506 0 12 C-3.8125 12.4375 -3.8125 12.4375 -7 12 C-6.39816251 9.97954558 -5.72693904 7.97888961 -5 6 C-4.34 5.67 -3.68 5.34 -3 5 C-1.9590934 3.35857037 -0.95495674 1.69287785 0 0 Z " fill="#101110" transform="translate(143,72)"/>
<path d="M0 0 C0.66 0.33 1.32 0.66 2 1 C0.42040347 2.29623379 -1.16383413 3.58681327 -2.75 4.875 C-3.63171875 5.59429687 -4.5134375 6.31359375 -5.421875 7.0546875 C-7.59583301 8.69503763 -9.5414003 9.87576851 -12 11 C-12.825 11.495 -13.65 11.99 -14.5 12.5 C-19.62771209 15.57662725 -24.15809665 16.86407435 -30 18 C-26.4634054 15.06190602 -22.49490921 13.21369505 -18.375 11.25 C-11.80097441 8.0527963 -5.81004017 4.46926167 0 0 Z " fill="#121314" transform="translate(275,203)"/>
<path d="M0 0 C3.97452911 0.58539576 7.7870148 1.44794291 11.66015625 2.51074219 C18.8923986 4.47905477 25.45015518 5.57583562 33 5 C33 5.99 33 6.98 33 8 C32 9 32 9 28.9375 9.0625 C27.968125 9.041875 26.99875 9.02125 26 9 C26 8.67 26 8.34 26 8 C24.7934375 7.74605469 23.586875 7.49210938 22.34375 7.23046875 C20.72909815 6.88313085 19.11451863 6.5354566 17.5 6.1875 C16.70851562 6.02185547 15.91703125 5.85621094 15.1015625 5.68554688 C9.84633795 4.54404318 4.99390958 2.99870922 0 1 C0 0.67 0 0.34 0 0 Z " fill="#141515" transform="translate(181,218)"/>
<path d="M0 0 C0.33 0 0.66 0 1 0 C1.03738281 1.12535156 1.07476562 2.25070313 1.11328125 3.41015625 C1.52324648 13.5626286 2.67828463 23.09985522 5 33 C2.35069314 31.67534657 1.74230256 29.94718557 0.66796875 27.26953125 C-1.93458279 18.42694387 -0.94632531 9.02648754 0 0 Z " fill="#040506" transform="translate(131,125)"/>
<path d="M0 0 C0.99 0.33 1.98 0.66 3 1 C3.33 1.99 3.66 2.98 4 4 C4.99 4.33 5.98 4.66 7 5 C7 5.99 7 6.98 7 8 C6.34 8 5.68 8 5 8 C5 8.99 5 9.98 5 11 C3.02 11.33 1.04 11.66 -1 12 C-0.67 8.04 -0.34 4.08 0 0 Z M2 5 C2.33 5.66 2.66 6.32 3 7 C3.33 6.34 3.66 5.68 4 5 C3.34 5 2.68 5 2 5 Z " fill="#090B0B" transform="translate(125,106)"/>
<path d="M0 0 C0.33 0 0.66 0 1 0 C1 9.24 1 18.48 1 28 C3.64 28 6.28 28 9 28 C9 28.66 9 29.32 9 30 C5.7 30 2.4 30 -1 30 C-0.67 20.1 -0.34 10.2 0 0 Z " fill="#0B0C0D" transform="translate(164,137)"/>
<path d="M0 0 C2 0 4 0 6 0 C6.66 1.98 7.32 3.96 8 6 C5.36 6 2.72 6 0 6 C-0.38218767 4.34385343 -0.71395102 2.67542976 -1 1 C-0.67 0.67 -0.34 0.34 0 0 Z " fill="#323335" transform="translate(198,160)"/>
<path d="M0 0 C0.66 0 1.32 0 2 0 C2.28875 0.78375 2.5775 1.5675 2.875 2.375 C3.84912254 5.09671632 3.84912254 5.09671632 6 7 C6.45847689 9.36030696 6.82143131 11.7398174 7.125 14.125 C7.29257812 15.40632813 7.46015625 16.68765625 7.6328125 18.0078125 C7.75398438 18.99523437 7.87515625 19.98265625 8 21 C7.34 21.33 6.68 21.66 6 22 C5.73445313 20.99839844 5.46890625 19.99679688 5.1953125 18.96484375 C4.83857569 17.62238679 4.48180293 16.27993939 4.125 14.9375 C3.95097656 14.28072266 3.77695312 13.62394531 3.59765625 12.94726562 C2.44578418 8.61707986 1.24279335 4.30499139 0 0 Z " fill="#060709" transform="translate(294,94)"/>
<path d="M0 0 C1.65 0 3.3 0 5 0 C5 0.66 5 1.32 5 2 C6.06541016 2.18175781 6.06541016 2.18175781 7.15234375 2.3671875 C8.07144531 2.53476563 8.99054688 2.70234375 9.9375 2.875 C11.31228516 3.11863281 11.31228516 3.11863281 12.71484375 3.3671875 C13.84599609 3.68042969 13.84599609 3.68042969 15 4 C15.33 4.66 15.66 5.32 16 6 C19.02934491 6.65772428 19.02934491 6.65772428 22 7 C22 7.33 22 7.66 22 8 C15.02530531 7.14595575 8.6327215 5.26483173 2 3 C2 2.34 2 1.68 2 1 C1.34 0.67 0.68 0.34 0 0 Z " fill="#161718" transform="translate(177,206)"/>
<path d="M0 0 C0.66 1.32 1.32 2.64 2 4 C1.34 4.66 0.68 5.32 0 6 C-0.70710678 7.64991582 -1.37943989 9.31562256 -2 11 C-2.33 10.01 -2.66 9.02 -3 8 C-3.66 7.67 -4.32 7.34 -5 7 C-4.75 4.625 -4.75 4.625 -4 2 C-1.9375 0.6875 -1.9375 0.6875 0 0 Z " fill="#0C0D0F" transform="translate(127,144)"/>
<path d="M0 0 C0.61875 0.268125 1.2375 0.53625 1.875 0.8125 C2.205 1.8025 2.535 2.7925 2.875 3.8125 C0.895 4.8025 0.895 4.8025 -1.125 5.8125 C-1.455 5.4825 -1.785 5.1525 -2.125 4.8125 C-2.785 5.4725 -3.445 6.1325 -4.125 6.8125 C-4.455 5.1625 -4.785 3.5125 -5.125 1.8125 C-2.125 -0.1875 -2.125 -0.1875 0 0 Z " fill="#262729" transform="translate(200.125,156.1875)"/>
<path d="M0 0 C0.66 1.32 1.32 2.64 2 4 C3.32 4 4.64 4 6 4 C6 5.32 6 6.64 6 8 C3.69 8 1.38 8 -1 8 C-0.67 5.36 -0.34 2.72 0 0 Z " fill="#303133" transform="translate(223,108)"/>
<path d="M0 0 C5.29860806 1.2976183 9.34525646 3.15015702 14 6 C10.38884694 7.20371769 9.75890242 6.71183147 6.4375 5.125 C5.65246094 4.75632813 4.86742187 4.38765625 4.05859375 4.0078125 C2.70296989 3.34414845 1.35001216 2.67500608 0 2 C0 1.34 0 0.68 0 0 Z " fill="#151617" transform="translate(167,211)"/>
<path d="M0 0 C0.33 0 0.66 0 1 0 C1 8.25 1 16.5 1 25 C0.67 25 0.34 25 0 25 C0 16.75 0 8.5 0 0 Z " fill="#000000" transform="translate(174,142)"/>
<path d="M0 0 C0.45890625 0.40992188 0.9178125 0.81984375 1.390625 1.2421875 C2.00421875 1.78101563 2.6178125 2.31984375 3.25 2.875 C3.85328125 3.40867188 4.4565625 3.94234375 5.078125 4.4921875 C6.97418746 5.9797487 8.81290005 7.00322436 11 8 C11 8.66 11 9.32 11 10 C6.39137539 8.50897439 3.46669756 6.30545582 0 3 C0 2.01 0 1.02 0 0 Z " fill="#121214" transform="translate(153,199)"/>
<path d="M0 0 C1.125 3.75 1.125 3.75 0 6 C-2.0625 6.625 -2.0625 6.625 -4 7 C-4.33 5.35 -4.66 3.7 -5 2 C-3.35 2 -1.7 2 0 2 C0 1.34 0 0.68 0 0 Z " fill="#090A0B" transform="translate(193,143)"/>
<path d="M0 0 C0.33 0 0.66 0 1 0 C1 2.64 1 5.28 1 8 C0.67 8 0.34 8 0 8 C0 5.36 0 2.72 0 0 Z " fill="#000606" transform="translate(219,216)"/>
<path d="M0 0 C1.98 0 3.96 0 6 0 C6 0.33 6 0.66 6 1 C4.02 1 2.04 1 0 1 C0 0.67 0 0.34 0 0 Z " fill="#000000" transform="translate(185,141)"/>
<path d="M0 0 C0.33 0 0.66 0 1 0 C1 1.65 1 3.3 1 5 C0.67 5 0.34 5 0 5 C0 3.35 0 1.7 0 0 Z " fill="#121212" transform="translate(215,216)"/>
<path d="" fill="#000000" transform="translate(0,0)"/>
<path d="" fill="#000000" transform="translate(0,0)"/>
<path d="M0 0 C0.66 0 1.32 0 2 0 C1.67 0.66 1.34 1.32 1 2 C0.67 1.34 0.34 0.68 0 0 Z " fill="#000000" transform="translate(257,136)"/>
<path d="M0 0 C3 1 3 1 3 1 Z " fill="#000000" transform="translate(186,136)"/>
<path d="M0 0 C3 1 3 1 3 1 Z " fill="#000000" transform="translate(176,136)"/>
<path d="M0 0 C2 1 2 1 2 1 Z " fill="#000000" transform="translate(250,220)"/>
<path d="M0 0 C2 1 2 1 2 1 Z " fill="#101010" transform="translate(239,210)"/>
<path d="M0 0 C2 1 2 1 2 1 Z " fill="#0E0E0E" transform="translate(250,206)"/>
<path d="" fill="#000000" transform="translate(0,0)"/>
<path d="" fill="#000000" transform="translate(0,0)"/>
<path d="" fill="#000000" transform="translate(0,0)"/>
<path d="" fill="#000000" transform="translate(0,0)"/>
<path d="" fill="#000000" transform="translate(0,0)"/>
<path d="" fill="#000000" transform="translate(0,0)"/>
<path d="" fill="#000000" transform="translate(0,0)"/>
<path d="" fill="#000000" transform="translate(0,0)"/>
<path d="" fill="#000000" transform="translate(0,0)"/>
<path d="M0 0 C2 1 2 1 2 1 Z " fill="#000000" transform="translate(192,141)"/>
<path d="" fill="#000000" transform="translate(0,0)"/>
<path d="" fill="#000000" transform="translate(0,0)"/>
<path d="" fill="#000000" transform="translate(0,0)"/>
<path d="M0 0 C2 1 2 1 2 1 Z " fill="#000000" transform="translate(201,131)"/>
<path d="" fill="#000000" transform="translate(0,0)"/>
<path d="M0 0 C2 1 2 1 2 1 Z " fill="#000000" transform="translate(190,123)"/>
<path d="" fill="#000000" transform="translate(0,0)"/>
<path d="" fill="#000000" transform="translate(0,0)"/>
<path d="" fill="#000000" transform="translate(0,0)"/>
<path d="" fill="#000000" transform="translate(0,0)"/>
<path d="" fill="#000000" transform="translate(0,0)"/>
<path d="" fill="#000000" transform="translate(0,0)"/>
<path d="" fill="#000000" transform="translate(0,0)"/>
<path d="" fill="#000000" transform="translate(0,0)"/>
<path d="" fill="#000000" transform="translate(0,0)"/>
<path d="" fill="#000000" transform="translate(0,0)"/>
<path d="" fill="#000000" transform="translate(0,0)"/>
<path d="" fill="#000000" transform="translate(0,0)"/>
<path d="" fill="#000000" transform="translate(0,0)"/>
<path d="" fill="#000000" transform="translate(0,0)"/>
<path d="" fill="#000000" transform="translate(0,0)"/>
<path d="" fill="#000000" transform="translate(0,0)"/>
<path d="" fill="#000000" transform="translate(0,0)"/>
<path d="" fill="#000000" transform="translate(0,0)"/>
<path d="" fill="#000000" transform="translate(0,0)"/>
<path d="" fill="#000000" transform="translate(0,0)"/>
<path d="" fill="#2A2A2A" transform="translate(0,0)"/>
<path d="" fill="#141414" transform="translate(0,0)"/>
<path d="" fill="#000000" transform="translate(0,0)"/>
<path d="" fill="#000000" transform="translate(0,0)"/>
<path d="" fill="#000000" transform="translate(0,0)"/>
<path d="" fill="#000000" transform="translate(0,0)"/>
<path d="" fill="#000000" transform="translate(0,0)"/>
<path d="" fill="#000000" transform="translate(0,0)"/>
<path d="" fill="#000000" transform="translate(0,0)"/>
<path d="" fill="#171717" transform="translate(0,0)"/>
<path d="" fill="#000000" transform="translate(0,0)"/>
<path d="" fill="#000000" transform="translate(0,0)"/>
<path d="" fill="#000000" transform="translate(0,0)"/>
<path d="" fill="#000000" transform="translate(0,0)"/>
<path d="" fill="#000000" transform="translate(0,0)"/>
<path d="" fill="#000000" transform="translate(0,0)"/>
<path d="" fill="#000000" transform="translate(0,0)"/>
<path d="" fill="#000000" transform="translate(0,0)"/>
<path d="" fill="#171717" transform="translate(0,0)"/>
<path d="" fill="#202020" transform="translate(0,0)"/>
<path d="" fill="#000000" transform="translate(0,0)"/>
<path d="" fill="#000000" transform="translate(0,0)"/>
<path d="" fill="#202020" transform="translate(0,0)"/>
<path d="" fill="#121212" transform="translate(0,0)"/>
<path d="" fill="#000000" transform="translate(0,0)"/>
<path d="" fill="#000000" transform="translate(0,0)"/>
<path d="" fill="#000000" transform="translate(0,0)"/>
<path d="" fill="#000017" transform="translate(0,0)"/>
<path d="" fill="#000000" transform="translate(0,0)"/>
<path d="" fill="#000000" transform="translate(0,0)"/>
<path d="" fill="#000000" transform="translate(0,0)"/>
<path d="" fill="#000000" transform="translate(0,0)"/>
<path d="" fill="#000000" transform="translate(0,0)"/>
<path d="" fill="#000000" transform="translate(0,0)"/>
<path d="" fill="#000000" transform="translate(0,0)"/>
<path d="" fill="#000000" transform="translate(0,0)"/>
<path d="" fill="#000000" transform="translate(0,0)"/>
<path d="" fill="#000000" transform="translate(0,0)"/>
<path d="" fill="#000000" transform="translate(0,0)"/>
<path d="" fill="#000000" transform="translate(0,0)"/>
<path d="" fill="#000000" transform="translate(0,0)"/>
<path d="" fill="#000000" transform="translate(0,0)"/>
<path d="" fill="#000000" transform="translate(0,0)"/>
<path d="" fill="#000000" transform="translate(0,0)"/>
<path d="" fill="#000000" transform="translate(0,0)"/>
<path d="" fill="#000000" transform="translate(0,0)"/>
<path d="" fill="#000000" transform="translate(0,0)"/>
<path d="" fill="#000000" transform="translate(0,0)"/>
<path d="" fill="#000000" transform="translate(0,0)"/>
<path d="" fill="#000000" transform="translate(0,0)"/>
<path d="" fill="#000000" transform="translate(0,0)"/>
<path d="" fill="#000000" transform="translate(0,0)"/>
<path d="" fill="#000000" transform="translate(0,0)"/>
<path d="" fill="#000000" transform="translate(0,0)"/>
<path d="" fill="#000000" transform="translate(0,0)"/>
<path d="" fill="#000000" transform="translate(0,0)"/>
<path d="" fill="#000000" transform="translate(0,0)"/>
<path d="" fill="#000000" transform="translate(0,0)"/>
<path d="" fill="#000000" transform="translate(0,0)"/>
<path d="" fill="#000000" transform="translate(0,0)"/>
<path d="" fill="#000000" transform="translate(0,0)"/>
<path d="" fill="#000000" transform="translate(0,0)"/>
<path d="" fill="#000000" transform="translate(0,0)"/>
<path d="" fill="#000000" transform="translate(0,0)"/>
<path d="" fill="#000000" transform="translate(0,0)"/>
<path d="" fill="#000000" transform="translate(0,0)"/>
<path d="" fill="#000000" transform="translate(0,0)"/>
<path d="" fill="#000000" transform="translate(0,0)"/>
<path d="" fill="#000000" transform="translate(0,0)"/>
<path d="" fill="#000000" transform="translate(0,0)"/>
<path d="" fill="#000000" transform="translate(0,0)"/>
<path d="" fill="#000000" transform="translate(0,0)"/>
<path d="" fill="#000000" transform="translate(0,0)"/>
<path d="" fill="#000000" transform="translate(0,0)"/>
</svg>
